/vscmnt/brussel_pixiu_data/_data_brussel/112/vsc11236/PredSimResults/SUBJ10opt3D/weighted-expIG/worker_01.mot
version=1
nRows=6
nColumns=50
inDegrees=yes
endheader
                time	         pelvis_tilt	         pelvis_list	     pelvis_rotation	           pelvis_tx	           pelvis_ty	           pelvis_tz	       hip_flexion_r	     hip_adduction_r	      hip_rotation_r	        knee_angle_r	       ankle_angle_r	         mtp_angle_r	       hip_flexion_l	     hip_adduction_l	      hip_rotation_l	        knee_angle_l	       ankle_angle_l	         mtp_angle_l	    lumbar_extension	      lumbar_bending	     lumbar_rotation	 ercspn_r/activation	 intobl_r/activation	 extobl_r/activation	    abd_r/activation	    add_r/activation	hamstrings_r/activation	bifemsh_r/activation	glut_max_r/activation	iliopsoas_r/activation	rect_fem_r/activation	  vasti_r/activation	gastroc_r/activation	 soleus_r/activation	tib_ant_r/activation	 ercspn_l/activation	 intobl_l/activation	 extobl_l/activation	    abd_l/activation	    add_l/activation	hamstrings_l/activation	bifemsh_l/activation	glut_max_l/activation	iliopsoas_l/activation	rect_fem_l/activation	  vasti_l/activation	gastroc_l/activation	 soleus_l/activation	tib_ant_l/activation	
          1.69619774	         -3.98142758	          0.88453429	         -7.00535790	          1.96758938	          0.82308413	          0.01282232	        -16.21761095	         -0.80459930	         -0.41830885	         -5.98596775	          8.36816466	         26.48091770	         30.53424935	         -1.61741419	         -5.83135541	         -7.77488682	          3.05976489	          0.26679812	         -6.50158823	          0.52697528	          6.63413751	          0.09503549	          0.00999999	          0.00999999	          0.05408650	          0.00999999	          0.01191534	          0.21227447	          0.01303345	          0.38567244	          0.01000000	          0.00999999	          0.30786719	          0.25137596	          0.02371014	          0.10831750	          0.15743307	          0.00999999	          0.00999999	          0.19070785	          0.11006720	          0.22303411	          0.05109548	          0.09576417	          0.01000000	          0.00999999	          0.01939947	          0.01391377	          0.28937212	
          1.70750573	         -4.01664371	          0.86014672	         -7.10199699	          1.98308344	          0.82177221	          0.01255578	        -16.27034541	         -0.93006251	         -0.72656260	         -7.74599412	          7.69133037	         28.14836211	         30.38121208	         -1.49670598	         -5.46062883	         -9.34576687	          2.71676710	          0.25216792	         -6.28179499	          0.06518097	          6.94379970	          0.11044723	          0.00999999	          0.00999999	          0.04550949	          0.01188466	          0.01884551	          0.17861209	          0.01096662	          0.32451269	          0.00999999	          0.00999999	          0.26936134	          0.24062272	          0.01995020	          0.09114056	          0.13246741	          0.00999999	          0.01000003	          0.16046550	          0.09658850	          0.18766547	          0.09530510	          0.08057793	          0.00999999	          0.00999999	          0.01632311	          0.01170733	          0.35550051	
          1.71881371	         -4.04326892	          0.85174865	         -7.15665379	          1.99880868	          0.82074623	          0.01216768	        -16.18255451	         -1.08273101	         -1.06176066	         -9.77402616	          6.85699485	         29.76531048	         30.08199085	         -1.36780459	         -5.15188491	        -10.66314436	          2.25906809	          0.24349303	         -6.04613934	         -0.41235548	          7.22363335	          0.12550593	          0.00999999	          0.00999999	          0.03829262	          0.01000000	          0.01585702	          0.15028788	          0.00999999	          0.27305163	          0.00999999	          0.00999999	          0.22664615	          0.22370474	          0.01678651	          0.10538876	          0.11146079	          0.00999999	          0.05846097	          0.16513281	          0.08312986	          0.15790558	          0.10957453	          0.06779992	          0.00999999	          0.00999999	          0.01373460	          0.00999999	          0.41336993	
          1.73012170	         -4.06163853	          0.83824633	         -7.16951646	          2.01457678	          0.82011220	          0.01166352	        -15.90191241	         -1.24040199	         -1.42706694	        -12.13271994	          5.85544521	         31.23723656	         29.73813305	         -1.24114029	         -4.94617190	        -11.91132085	          1.79314181	          0.22994945	         -5.81639055	         -0.88117139	          7.46894254	          0.15265081	          0.00999999	          0.00999999	          0.03222019	          0.00999999	          0.01344613	          0.12645530	          0.00999999	          0.22975124	          0.00999999	          0.00999999	          0.19070472	          0.20575398	          0.01412451	          0.10828477	          0.09378540	          0.00999999	          0.09648932	          0.20853117	          0.07046083	          0.13286499	          0.11674897	          0.05704825	          0.00999999	          0.00999999	          0.01155658	          0.00999999	          0.44695737	
          1.74142968	         -4.07153052	          0.82250942	         -7.14461578	          2.03025873	          0.81993552	          0.01105502	        -15.39108622	         -1.40880977	         -1.82732717	        -14.86278781	          4.70797184	         32.40772187	         29.41247117	         -1.11588666	         -4.82552570	        -13.21600400	          1.46248883	          0.21651355	         -5.60233742	         -1.34260351	          7.67887377	          0.17536527	          0.00999999	          0.00999999	          0.02711073	          0.05613081	          0.02723533	          0.10640208	          0.00999999	          0.19331740	          0.00999999	          0.00999999	          0.16046286	          0.17782297	          0.01188465	          0.10796894	          0.07891295	          0.00999999	          0.12546063	          0.23793974	          0.06608380	          0.11179532	          0.11621244	          0.04800156	          0.00999999	          0.03475205	          0.00999999	          0.00999999	          0.45863699	
          1.75273767	         -4.07429307	          0.80439246	         -7.08464575	          2.04575505	          0.82028987	          0.01036516	        -14.61612804	         -1.58995697	         -2.28191025	        -17.99616506	          3.44127027	         33.06897022	         29.09167301	         -0.99174705	         -4.76592086	        -14.54383994	          1.32624553	          0.20173768	         -5.40980630	         -1.79550330	          7.85343770	          0.18970776	          0.00999999	          0.00999999	          0.02281152	          0.12676915	          0.03141851	          0.08952889	          0.00999999	          0.16266122	          0.00999999	          0.00999999	          0.13501674	          0.14962389	          0.00999999	          0.10296357	          0.06639898	          0.00999999	          0.14120857	          0.25841441	          0.06576961	          0.09406688	          0.10809600	          0.04038950	          0.00999999	          0.07213530	          0.00999999	          0.00999999	          0.45262997	
